<?xml version="1.0" encoding="UTF-8" standalone="no"?>
<!-- Created with Inkscape (http://www.inkscape.org/) -->

<svg
   xmlns:dc="http://purl.org/dc/elements/1.1/"
   xmlns:cc="http://creativecommons.org/ns#"
   xmlns:rdf="http://www.w3.org/1999/02/22-rdf-syntax-ns#"
   xmlns:svg="http://www.w3.org/2000/svg"
   xmlns="http://www.w3.org/2000/svg"
   xmlns:xlink="http://www.w3.org/1999/xlink"
   xmlns:sodipodi="http://sodipodi.sourceforge.net/DTD/sodipodi-0.dtd"
   xmlns:inkscape="http://www.inkscape.org/namespaces/inkscape"
   width="210mm"
   height="297mm"
   viewBox="0 0 744.09448819 1052.3622047"
   id="svg2"
   version="1.1"
   inkscape:version="0.91 r13725"
   sodipodi:docname="cover.svg"
   inkscape:export-filename="/Users/marian/Dropbox/in praise/cover.png"
   inkscape:export-xdpi="87.72493"
   inkscape:export-ydpi="87.72493">
  <defs
     id="defs4" />
  <sodipodi:namedview
     id="base"
     pagecolor="#ffffff"
     bordercolor="#666666"
     borderopacity="1.0"
     inkscape:pageopacity="0.0"
     inkscape:pageshadow="2"
     inkscape:zoom="0.49497475"
     inkscape:cx="142.55858"
     inkscape:cy="555.58239"
     inkscape:document-units="px"
     inkscape:current-layer="layer1"
     showgrid="false"
     showguides="true"
     inkscape:guide-bbox="true"
     inkscape:window-width="1440"
     inkscape:window-height="808"
     inkscape:window-x="23"
     inkscape:window-y="0"
     inkscape:window-maximized="0" />
  <metadata
     id="metadata7">
    <rdf:RDF>
      <cc:Work
         rdf:about="">
        <dc:format>image/svg+xml</dc:format>
        <dc:type
           rdf:resource="http://purl.org/dc/dcmitype/StillImage" />
        <dc:title></dc:title>
      </cc:Work>
    </rdf:RDF>
  </metadata>
  <g
     inkscape:label="Layer 1"
     inkscape:groupmode="layer"
     id="layer1">
    <rect
       style="fill:#ff6600"
       id="rect3550"
       width="753.57379"
       height="1056.6195"
       x="-4.7396517"
       y="-2.1286511" />
    <text
       xml:space="preserve"
       style="font-style:normal;font-weight:normal;font-size:40px;line-height:125.99999905%;font-family:sans-serif;letter-spacing:0px;word-spacing:0px;fill:#000000;fill-opacity:1;stroke:none;stroke-width:1px;stroke-linecap:butt;stroke-linejoin:miter;stroke-opacity:1"
       x="370.98584"
       y="194.49127"
       id="text3407"
       sodipodi:linespacing="126%"
       inkscape:export-xdpi="87.72493"
       inkscape:export-ydpi="87.72493"><tspan
         sodipodi:role="line"
         id="tspan3409"
         x="370.98584"
         y="194.49127"
         style="font-style:normal;font-variant:normal;font-weight:bold;font-stretch:normal;font-size:117.5px;line-height:125.99999905%;font-family:'.Beirut PUA';-inkscape-font-specification:'.Beirut PUA, Bold';text-align:center;writing-mode:lr-tb;text-anchor:middle;fill:#f9f9f9">LOS SIETE</tspan><tspan
         sodipodi:role="line"
         x="370.98584"
         y="342.54126"
         style="font-style:normal;font-variant:normal;font-weight:bold;font-stretch:normal;font-size:117.5px;line-height:125.99999905%;font-family:'.Beirut PUA';-inkscape-font-specification:'.Beirut PUA, Bold';text-align:center;writing-mode:lr-tb;text-anchor:middle;fill:#f9f9f9"
         id="tspan3540">LOCOS</tspan></text>
    <text
       xml:space="preserve"
       style="font-style:normal;font-weight:normal;font-size:40px;line-height:125%;font-family:sans-serif;letter-spacing:0px;word-spacing:0px;fill:#000000;fill-opacity:1;stroke:none;stroke-width:1px;stroke-linecap:butt;stroke-linejoin:miter;stroke-opacity:1"
       x="250.33826"
       y="957.79077"
       id="text3417"
       sodipodi:linespacing="125%"
       inkscape:export-xdpi="87.72493"
       inkscape:export-ydpi="87.72493"><tspan
         sodipodi:role="line"
         id="tspan3419"
         x="250.33826"
         y="957.79077"
         style="fill:#ffffff">Roberto Arlt</tspan></text>
    <flowRoot
       xml:space="preserve"
       id="flowRoot3439"
       style="fill:black;stroke:none;stroke-opacity:1;stroke-width:1px;stroke-linejoin:miter;stroke-linecap:butt;fill-opacity:1;font-family:sans-serif;font-style:normal;font-weight:normal;font-size:40px;line-height:125%;letter-spacing:0px;word-spacing:0px"><flowRegion
         id="flowRegion3441"><rect
           id="rect3443"
           width="528.57141"
           height="45.714287"
           x="117.14286"
           y="418.07648" /></flowRegion><flowPara
         id="flowPara3445" /></flowRoot>    <flowRoot
       xml:space="preserve"
       id="flowRoot3542"
       style="fill:black;stroke:none;stroke-opacity:1;stroke-width:1px;stroke-linejoin:miter;stroke-linecap:butt;fill-opacity:1;font-family:sans-serif;font-style:normal;font-weight:normal;font-size:40px;line-height:125%;letter-spacing:0px;word-spacing:0px"><flowRegion
         id="flowRegion3544"><rect
           id="rect3546"
           width="559.62451"
           height="256.57874"
           x="230.31477"
           y="191.71223" /></flowRegion><flowPara
         id="flowPara3548"></flowPara></flowRoot>    <g
       id="g3688"
       transform="translate(38.005726,24)">
      <g
         transform="matrix(-0.26543784,0.0016747,0.0016747,0.26543784,427.4636,332.79585)"
         inkscape:label="Layer 1"
         id="g3594">
        <image
           sodipodi:absref="/Users/marian/Downloads/Untitled.png"
           y="33.943623"
           x="-118.41857"
           id="image3596"
           xlink:href="file:///Users/marian/Downloads/Untitled.png"
           preserveAspectRatio="none"
           height="951.12286"
           width="951.12286" />
        <path
           style="fill:#000000"
           d="m 218.04594,901.54601 c 0.002,-0.81737 6.66427,-53.80061 14.8036,-117.74054 L 247.64832,667.55107 158.63784,539.53382 69.627336,411.51656 78.25899,398.98505 c 4.747399,-6.89233 34.47071,-50.78449 66.0518,-97.53812 31.58109,-46.75364 57.82877,-85.46372 58.32818,-86.02241 0.81827,-0.91541 182.20805,80.06917 184.65862,82.44401 0.96596,0.93611 -7.32328,49.99249 -8.87283,52.51016 -0.61337,0.99658 -85.18823,22.34975 -88.45495,22.33281 -0.6539,-0.004 -12.69155,-10.64958 -26.75033,-23.65821 -14.05879,-13.00863 -25.70485,-23.02294 -25.88015,-22.25404 -0.17529,0.76891 0.92459,7.55058 2.44418,15.0704 l 2.76291,13.67239 -8.95487,13.89292 -8.95488,13.89291 -11.32286,5.20605 -11.32287,5.20606 43.38172,17.19288 43.3817,17.19287 61.53904,94.27419 c 33.84646,51.8508 61.51339,94.6377 61.48208,95.082 -0.0313,0.44429 -12.31498,8.56541 -27.29699,18.04691 -14.98202,9.48151 -27.26155,17.64036 -27.28784,18.13078 -0.0263,0.49042 0.94727,0.89168 2.16345,0.89168 3.52099,0 38.66167,3.62059 39.06611,4.02504 0.20117,0.20117 6.06371,40.97459 13.02787,90.60762 6.96415,49.63301 13.14335,90.77685 13.73155,91.43075 0.63635,0.70742 0.8063,-4.1074 0.41964,-11.88904 -0.35739,-7.19286 -0.92322,-44.10832 -1.25738,-82.03434 l -0.60758,-68.95641 16.04377,-7.70051 c 8.82408,-4.23527 16.01906,-7.98032 15.98884,-8.32232 -0.0302,-0.342 -4.55246,-5.43688 -10.04942,-11.32195 l -9.9945,-10.70014 -15.6863,-41.61162 c -8.62745,-22.88639 -17.75608,-46.96169 -20.28583,-53.50066 -4.58671,-11.85587 -4.69924,-12.01002 -40.33606,-55.25481 -19.65509,-23.85116 -35.23121,-43.5342 -34.6136,-43.74007 0.61761,-0.20587 27.44328,5.2306 59.61261,12.08105 l 58.48968,12.45534 33.07288,32.17598 33.07287,32.17597 44.21959,-39.33801 c 24.32078,-21.63591 44.3612,-39.15718 44.53427,-38.93617 0.17306,0.22102 -7.22537,37.07024 -16.44095,81.88716 l -16.75563,81.48533 -26.8632,32.82258 -26.86321,32.8226 -0.73971,15.28258 c -0.40684,8.40542 -2.12745,55.67558 -3.82357,105.0448 -1.69613,49.36922 -3.34298,91.50099 -3.65967,93.62616 l -0.57582,3.86394 -142.0201,0 c -112.82605,0 -142.01912,-0.30549 -142.01531,-1.48613 z m 264.04607,-404.61 -26.16357,-23.26916 17.48304,-21.06241 c 84.49762,-101.79718 108.9212,-130.94615 109.71828,-130.94615 1.30453,0 60.78425,76.93492 60.38292,78.10319 -0.46971,1.36733 -133.32641,120.44371 -134.38227,120.44371 -0.48114,0 -12.64843,-10.47113 -27.0384,-23.26918 z m -72.04294,-52.32034 c -20.9247,-10.05831 -38.52066,-18.45678 -39.10212,-18.66325 -0.73975,-0.26269 110.15385,-168.49321 114.08958,-173.07899 0.19963,-0.23259 19.89063,12.87507 43.75779,29.12814 38.55938,26.25819 43.23733,29.78054 41.98133,31.61065 -3.12101,4.54759 -121.53455,149.40255 -122.08721,149.34895 -0.32695,-0.0317 -17.71467,-8.2872 -38.63937,-18.3455 z m -96.69073,-31.3594 -26.54543,-15.26281 3.95626,-1.2941 c 8.18354,-2.67684 82.27854,-23.86485 82.5304,-23.60017 0.44155,0.464 -32.09798,55.5654 -32.76909,55.49017 -0.3447,-0.0386 -12.57216,-6.93854 -27.17214,-15.33309 z m 83.27635,-94.67024 c 2.57139,-12.806 4.43394,-23.91249 4.13899,-24.68109 -0.29494,-0.7686 -15.33018,-9.66103 -33.41167,-19.76096 -19.57321,-10.93317 -32.65777,-18.93068 -32.33751,-19.76525 1.07372,-2.79806 55.48223,-86.69259 56.43391,-87.01757 0.95211,-0.32512 94.47846,57.03439 97.26828,59.65445 1.05314,0.98906 -6.43972,12.55576 -30.31704,46.80031 l -31.71593,45.48656 -16.9234,11.28358 c -9.30787,6.20597 -17.12308,11.28359 -17.36714,11.28359 -0.24405,0 1.66013,-10.47763 4.23151,-23.28362 z m -122.12063,-86.3334 c -26.15588,-11.20499 -47.74342,-20.51474 -47.97231,-20.68832 -0.44813,-0.33987 67.72226,-91.16432 71.15757,-94.80432 1.99425,-2.11306 3.2141,-1.53159 34.61925,16.5023 17.90369,10.2809 35.58189,20.50582 39.2849,22.72206 l 6.73273,4.02951 -27.53854,46.31484 c -15.14621,25.47315 -27.80606,46.31073 -28.133,46.30573 -0.32695,-0.005 -21.99472,-9.1768 -48.1506,-20.3818 z"
           id="path3598"
           inkscape:connector-curvature="0" />
      </g>
      <g
         id="g3612"
         inkscape:label="Layer 1"
         transform="matrix(-0.16425605,0.20851858,0.20851858,0.16425605,179.96037,362.31732)">
        <image
           width="951.12286"
           height="951.12286"
           preserveAspectRatio="none"
           xlink:href="file:///Users/marian/Downloads/Untitled.png"
           id="image3614"
           x="-118.41857"
           y="33.943623"
           sodipodi:absref="/Users/marian/Downloads/Untitled.png" />
        <path
           inkscape:connector-curvature="0"
           id="path3616"
           d="m 218.04594,901.54601 c 0.002,-0.81737 6.66427,-53.80061 14.8036,-117.74054 L 247.64832,667.55107 158.63784,539.53382 69.627336,411.51656 78.25899,398.98505 c 4.747399,-6.89233 34.47071,-50.78449 66.0518,-97.53812 31.58109,-46.75364 57.82877,-85.46372 58.32818,-86.02241 0.81827,-0.91541 182.20805,80.06917 184.65862,82.44401 0.96596,0.93611 -7.32328,49.99249 -8.87283,52.51016 -0.61337,0.99658 -85.18823,22.34975 -88.45495,22.33281 -0.6539,-0.004 -12.69155,-10.64958 -26.75033,-23.65821 -14.05879,-13.00863 -25.70485,-23.02294 -25.88015,-22.25404 -0.17529,0.76891 0.92459,7.55058 2.44418,15.0704 l 2.76291,13.67239 -8.95487,13.89292 -8.95488,13.89291 -11.32286,5.20605 -11.32287,5.20606 43.38172,17.19288 43.3817,17.19287 61.53904,94.27419 c 33.84646,51.8508 61.51339,94.6377 61.48208,95.082 -0.0313,0.44429 -12.31498,8.56541 -27.29699,18.04691 -14.98202,9.48151 -27.26155,17.64036 -27.28784,18.13078 -0.0263,0.49042 0.94727,0.89168 2.16345,0.89168 3.52099,0 38.66167,3.62059 39.06611,4.02504 0.20117,0.20117 6.06371,40.97459 13.02787,90.60762 6.96415,49.63301 13.14335,90.77685 13.73155,91.43075 0.63635,0.70742 0.8063,-4.1074 0.41964,-11.88904 -0.35739,-7.19286 -0.92322,-44.10832 -1.25738,-82.03434 l -0.60758,-68.95641 16.04377,-7.70051 c 8.82408,-4.23527 16.01906,-7.98032 15.98884,-8.32232 -0.0302,-0.342 -4.55246,-5.43688 -10.04942,-11.32195 l -9.9945,-10.70014 -15.6863,-41.61162 c -8.62745,-22.88639 -17.75608,-46.96169 -20.28583,-53.50066 -4.58671,-11.85587 -4.69924,-12.01002 -40.33606,-55.25481 -19.65509,-23.85116 -35.23121,-43.5342 -34.6136,-43.74007 0.61761,-0.20587 27.44328,5.2306 59.61261,12.08105 l 58.48968,12.45534 33.07288,32.17598 33.07287,32.17597 44.21959,-39.33801 c 24.32078,-21.63591 44.3612,-39.15718 44.53427,-38.93617 0.17306,0.22102 -7.22537,37.07024 -16.44095,81.88716 l -16.75563,81.48533 -26.8632,32.82258 -26.86321,32.8226 -0.73971,15.28258 c -0.40684,8.40542 -2.12745,55.67558 -3.82357,105.0448 -1.69613,49.36922 -3.34298,91.50099 -3.65967,93.62616 l -0.57582,3.86394 -142.0201,0 c -112.82605,0 -142.01912,-0.30549 -142.01531,-1.48613 z m 264.04607,-404.61 -26.16357,-23.26916 17.48304,-21.06241 c 84.49762,-101.79718 108.9212,-130.94615 109.71828,-130.94615 1.30453,0 60.78425,76.93492 60.38292,78.10319 -0.46971,1.36733 -133.32641,120.44371 -134.38227,120.44371 -0.48114,0 -12.64843,-10.47113 -27.0384,-23.26918 z m -72.04294,-52.32034 c -20.9247,-10.05831 -38.52066,-18.45678 -39.10212,-18.66325 -0.73975,-0.26269 110.15385,-168.49321 114.08958,-173.07899 0.19963,-0.23259 19.89063,12.87507 43.75779,29.12814 38.55938,26.25819 43.23733,29.78054 41.98133,31.61065 -3.12101,4.54759 -121.53455,149.40255 -122.08721,149.34895 -0.32695,-0.0317 -17.71467,-8.2872 -38.63937,-18.3455 z m -96.69073,-31.3594 -26.54543,-15.26281 3.95626,-1.2941 c 8.18354,-2.67684 82.27854,-23.86485 82.5304,-23.60017 0.44155,0.464 -32.09798,55.5654 -32.76909,55.49017 -0.3447,-0.0386 -12.57216,-6.93854 -27.17214,-15.33309 z m 83.27635,-94.67024 c 2.57139,-12.806 4.43394,-23.91249 4.13899,-24.68109 -0.29494,-0.7686 -15.33018,-9.66103 -33.41167,-19.76096 -19.57321,-10.93317 -32.65777,-18.93068 -32.33751,-19.76525 1.07372,-2.79806 55.48223,-86.69259 56.43391,-87.01757 0.95211,-0.32512 94.47846,57.03439 97.26828,59.65445 1.05314,0.98906 -6.43972,12.55576 -30.31704,46.80031 l -31.71593,45.48656 -16.9234,11.28358 c -9.30787,6.20597 -17.12308,11.28359 -17.36714,11.28359 -0.24405,0 1.66013,-10.47763 4.23151,-23.28362 z m -122.12063,-86.3334 c -26.15588,-11.20499 -47.74342,-20.51474 -47.97231,-20.68832 -0.44813,-0.33987 67.72226,-91.16432 71.15757,-94.80432 1.99425,-2.11306 3.2141,-1.53159 34.61925,16.5023 17.90369,10.2809 35.58189,20.50582 39.2849,22.72206 l 6.73273,4.02951 -27.53854,46.31484 c -15.14621,25.47315 -27.80606,46.31073 -28.133,46.30573 -0.32695,-0.005 -21.99472,-9.1768 -48.1506,-20.3818 z"
           style="fill:#000000" />
      </g>
      <g
         transform="matrix(0.06053064,0.25844939,0.25844939,-0.06053064,48.656793,574.18692)"
         inkscape:label="Layer 1"
         id="g3618">
        <image
           sodipodi:absref="/Users/marian/Downloads/Untitled.png"
           y="33.943623"
           x="-118.41857"
           id="image3620"
           xlink:href="file:///Users/marian/Downloads/Untitled.png"
           preserveAspectRatio="none"
           height="951.12286"
           width="951.12286" />
        <path
           style="fill:#000000"
           d="m 218.04594,901.54601 c 0.002,-0.81737 6.66427,-53.80061 14.8036,-117.74054 L 247.64832,667.55107 158.63784,539.53382 69.627336,411.51656 78.25899,398.98505 c 4.747399,-6.89233 34.47071,-50.78449 66.0518,-97.53812 31.58109,-46.75364 57.82877,-85.46372 58.32818,-86.02241 0.81827,-0.91541 182.20805,80.06917 184.65862,82.44401 0.96596,0.93611 -7.32328,49.99249 -8.87283,52.51016 -0.61337,0.99658 -85.18823,22.34975 -88.45495,22.33281 -0.6539,-0.004 -12.69155,-10.64958 -26.75033,-23.65821 -14.05879,-13.00863 -25.70485,-23.02294 -25.88015,-22.25404 -0.17529,0.76891 0.92459,7.55058 2.44418,15.0704 l 2.76291,13.67239 -8.95487,13.89292 -8.95488,13.89291 -11.32286,5.20605 -11.32287,5.20606 43.38172,17.19288 43.3817,17.19287 61.53904,94.27419 c 33.84646,51.8508 61.51339,94.6377 61.48208,95.082 -0.0313,0.44429 -12.31498,8.56541 -27.29699,18.04691 -14.98202,9.48151 -27.26155,17.64036 -27.28784,18.13078 -0.0263,0.49042 0.94727,0.89168 2.16345,0.89168 3.52099,0 38.66167,3.62059 39.06611,4.02504 0.20117,0.20117 6.06371,40.97459 13.02787,90.60762 6.96415,49.63301 13.14335,90.77685 13.73155,91.43075 0.63635,0.70742 0.8063,-4.1074 0.41964,-11.88904 -0.35739,-7.19286 -0.92322,-44.10832 -1.25738,-82.03434 l -0.60758,-68.95641 16.04377,-7.70051 c 8.82408,-4.23527 16.01906,-7.98032 15.98884,-8.32232 -0.0302,-0.342 -4.55246,-5.43688 -10.04942,-11.32195 l -9.9945,-10.70014 -15.6863,-41.61162 c -8.62745,-22.88639 -17.75608,-46.96169 -20.28583,-53.50066 -4.58671,-11.85587 -4.69924,-12.01002 -40.33606,-55.25481 -19.65509,-23.85116 -35.23121,-43.5342 -34.6136,-43.74007 0.61761,-0.20587 27.44328,5.2306 59.61261,12.08105 l 58.48968,12.45534 33.07288,32.17598 33.07287,32.17597 44.21959,-39.33801 c 24.32078,-21.63591 44.3612,-39.15718 44.53427,-38.93617 0.17306,0.22102 -7.22537,37.07024 -16.44095,81.88716 l -16.75563,81.48533 -26.8632,32.82258 -26.86321,32.8226 -0.73971,15.28258 c -0.40684,8.40542 -2.12745,55.67558 -3.82357,105.0448 -1.69613,49.36922 -3.34298,91.50099 -3.65967,93.62616 l -0.57582,3.86394 -142.0201,0 c -112.82605,0 -142.01912,-0.30549 -142.01531,-1.48613 z m 264.04607,-404.61 -26.16357,-23.26916 17.48304,-21.06241 c 84.49762,-101.79718 108.9212,-130.94615 109.71828,-130.94615 1.30453,0 60.78425,76.93492 60.38292,78.10319 -0.46971,1.36733 -133.32641,120.44371 -134.38227,120.44371 -0.48114,0 -12.64843,-10.47113 -27.0384,-23.26918 z m -72.04294,-52.32034 c -20.9247,-10.05831 -38.52066,-18.45678 -39.10212,-18.66325 -0.73975,-0.26269 110.15385,-168.49321 114.08958,-173.07899 0.19963,-0.23259 19.89063,12.87507 43.75779,29.12814 38.55938,26.25819 43.23733,29.78054 41.98133,31.61065 -3.12101,4.54759 -121.53455,149.40255 -122.08721,149.34895 -0.32695,-0.0317 -17.71467,-8.2872 -38.63937,-18.3455 z m -96.69073,-31.3594 -26.54543,-15.26281 3.95626,-1.2941 c 8.18354,-2.67684 82.27854,-23.86485 82.5304,-23.60017 0.44155,0.464 -32.09798,55.5654 -32.76909,55.49017 -0.3447,-0.0386 -12.57216,-6.93854 -27.17214,-15.33309 z m 83.27635,-94.67024 c 2.57139,-12.806 4.43394,-23.91249 4.13899,-24.68109 -0.29494,-0.7686 -15.33018,-9.66103 -33.41167,-19.76096 -19.57321,-10.93317 -32.65777,-18.93068 -32.33751,-19.76525 1.07372,-2.79806 55.48223,-86.69259 56.43391,-87.01757 0.95211,-0.32512 94.47846,57.03439 97.26828,59.65445 1.05314,0.98906 -6.43972,12.55576 -30.31704,46.80031 l -31.71593,45.48656 -16.9234,11.28358 c -9.30787,6.20597 -17.12308,11.28359 -17.36714,11.28359 -0.24405,0 1.66013,-10.47763 4.23151,-23.28362 z m -122.12063,-86.3334 c -26.15588,-11.20499 -47.74342,-20.51474 -47.97231,-20.68832 -0.44813,-0.33987 67.72226,-91.16432 71.15757,-94.80432 1.99425,-2.11306 3.2141,-1.53159 34.61925,16.5023 17.90369,10.2809 35.58189,20.50582 39.2849,22.72206 l 6.73273,4.02951 -27.53854,46.31484 c -15.14621,25.47315 -27.80606,46.31073 -28.133,46.30573 -0.32695,-0.005 -21.99472,-9.1768 -48.1506,-20.3818 z"
           id="path3622"
           inkscape:connector-curvature="0" />
      </g>
      <g
         id="g3624"
         inkscape:label="Layer 1"
         transform="matrix(0.2397672,0.11389351,0.11389351,-0.2397672,132.36056,808.96988)">
        <image
           width="951.12286"
           height="951.12286"
           preserveAspectRatio="none"
           xlink:href="file:///Users/marian/Downloads/Untitled.png"
           id="image3626"
           x="-118.41857"
           y="33.943623"
           sodipodi:absref="/Users/marian/Downloads/Untitled.png" />
        <path
           inkscape:connector-curvature="0"
           id="path3628"
           d="m 218.04594,901.54601 c 0.002,-0.81737 6.66427,-53.80061 14.8036,-117.74054 L 247.64832,667.55107 158.63784,539.53382 69.627336,411.51656 78.25899,398.98505 c 4.747399,-6.89233 34.47071,-50.78449 66.0518,-97.53812 31.58109,-46.75364 57.82877,-85.46372 58.32818,-86.02241 0.81827,-0.91541 182.20805,80.06917 184.65862,82.44401 0.96596,0.93611 -7.32328,49.99249 -8.87283,52.51016 -0.61337,0.99658 -85.18823,22.34975 -88.45495,22.33281 -0.6539,-0.004 -12.69155,-10.64958 -26.75033,-23.65821 -14.05879,-13.00863 -25.70485,-23.02294 -25.88015,-22.25404 -0.17529,0.76891 0.92459,7.55058 2.44418,15.0704 l 2.76291,13.67239 -8.95487,13.89292 -8.95488,13.89291 -11.32286,5.20605 -11.32287,5.20606 43.38172,17.19288 43.3817,17.19287 61.53904,94.27419 c 33.84646,51.8508 61.51339,94.6377 61.48208,95.082 -0.0313,0.44429 -12.31498,8.56541 -27.29699,18.04691 -14.98202,9.48151 -27.26155,17.64036 -27.28784,18.13078 -0.0263,0.49042 0.94727,0.89168 2.16345,0.89168 3.52099,0 38.66167,3.62059 39.06611,4.02504 0.20117,0.20117 6.06371,40.97459 13.02787,90.60762 6.96415,49.63301 13.14335,90.77685 13.73155,91.43075 0.63635,0.70742 0.8063,-4.1074 0.41964,-11.88904 -0.35739,-7.19286 -0.92322,-44.10832 -1.25738,-82.03434 l -0.60758,-68.95641 16.04377,-7.70051 c 8.82408,-4.23527 16.01906,-7.98032 15.98884,-8.32232 -0.0302,-0.342 -4.55246,-5.43688 -10.04942,-11.32195 l -9.9945,-10.70014 -15.6863,-41.61162 c -8.62745,-22.88639 -17.75608,-46.96169 -20.28583,-53.50066 -4.58671,-11.85587 -4.69924,-12.01002 -40.33606,-55.25481 -19.65509,-23.85116 -35.23121,-43.5342 -34.6136,-43.74007 0.61761,-0.20587 27.44328,5.2306 59.61261,12.08105 l 58.48968,12.45534 33.07288,32.17598 33.07287,32.17597 44.21959,-39.33801 c 24.32078,-21.63591 44.3612,-39.15718 44.53427,-38.93617 0.17306,0.22102 -7.22537,37.07024 -16.44095,81.88716 l -16.75563,81.48533 -26.8632,32.82258 -26.86321,32.8226 -0.73971,15.28258 c -0.40684,8.40542 -2.12745,55.67558 -3.82357,105.0448 -1.69613,49.36922 -3.34298,91.50099 -3.65967,93.62616 l -0.57582,3.86394 -142.0201,0 c -112.82605,0 -142.01912,-0.30549 -142.01531,-1.48613 z m 264.04607,-404.61 -26.16357,-23.26916 17.48304,-21.06241 c 84.49762,-101.79718 108.9212,-130.94615 109.71828,-130.94615 1.30453,0 60.78425,76.93492 60.38292,78.10319 -0.46971,1.36733 -133.32641,120.44371 -134.38227,120.44371 -0.48114,0 -12.64843,-10.47113 -27.0384,-23.26918 z m -72.04294,-52.32034 c -20.9247,-10.05831 -38.52066,-18.45678 -39.10212,-18.66325 -0.73975,-0.26269 110.15385,-168.49321 114.08958,-173.07899 0.19963,-0.23259 19.89063,12.87507 43.75779,29.12814 38.55938,26.25819 43.23733,29.78054 41.98133,31.61065 -3.12101,4.54759 -121.53455,149.40255 -122.08721,149.34895 -0.32695,-0.0317 -17.71467,-8.2872 -38.63937,-18.3455 z m -96.69073,-31.3594 -26.54543,-15.26281 3.95626,-1.2941 c 8.18354,-2.67684 82.27854,-23.86485 82.5304,-23.60017 0.44155,0.464 -32.09798,55.5654 -32.76909,55.49017 -0.3447,-0.0386 -12.57216,-6.93854 -27.17214,-15.33309 z m 83.27635,-94.67024 c 2.57139,-12.806 4.43394,-23.91249 4.13899,-24.68109 -0.29494,-0.7686 -15.33018,-9.66103 -33.41167,-19.76096 -19.57321,-10.93317 -32.65777,-18.93068 -32.33751,-19.76525 1.07372,-2.79806 55.48223,-86.69259 56.43391,-87.01757 0.95211,-0.32512 94.47846,57.03439 97.26828,59.65445 1.05314,0.98906 -6.43972,12.55576 -30.31704,46.80031 l -31.71593,45.48656 -16.9234,11.28358 c -9.30787,6.20597 -17.12308,11.28359 -17.36714,11.28359 -0.24405,0 1.66013,-10.47763 4.23151,-23.28362 z m -122.12063,-86.3334 c -26.15588,-11.20499 -47.74342,-20.51474 -47.97231,-20.68832 -0.44813,-0.33987 67.72226,-91.16432 71.15757,-94.80432 1.99425,-2.11306 3.2141,-1.53159 34.61925,16.5023 17.90369,10.2809 35.58189,20.50582 39.2849,22.72206 l 6.73273,4.02951 -27.53854,46.31484 c -15.14621,25.47315 -27.80606,46.31073 -28.133,46.30573 -0.32695,-0.005 -21.99472,-9.1768 -48.1506,-20.3818 z"
           style="fill:#000000" />
      </g>
      <g
         transform="matrix(0.23857567,-0.11636878,-0.11636878,-0.23857567,368.08346,889.98883)"
         inkscape:label="Layer 1"
         id="g3630">
        <image
           sodipodi:absref="/Users/marian/Downloads/Untitled.png"
           y="33.943623"
           x="-118.41857"
           id="image3632"
           xlink:href="file:///Users/marian/Downloads/Untitled.png"
           preserveAspectRatio="none"
           height="951.12286"
           width="951.12286" />
        <path
           style="fill:#000000"
           d="m 218.04594,901.54601 c 0.002,-0.81737 6.66427,-53.80061 14.8036,-117.74054 L 247.64832,667.55107 158.63784,539.53382 69.627336,411.51656 78.25899,398.98505 c 4.747399,-6.89233 34.47071,-50.78449 66.0518,-97.53812 31.58109,-46.75364 57.82877,-85.46372 58.32818,-86.02241 0.81827,-0.91541 182.20805,80.06917 184.65862,82.44401 0.96596,0.93611 -7.32328,49.99249 -8.87283,52.51016 -0.61337,0.99658 -85.18823,22.34975 -88.45495,22.33281 -0.6539,-0.004 -12.69155,-10.64958 -26.75033,-23.65821 -14.05879,-13.00863 -25.70485,-23.02294 -25.88015,-22.25404 -0.17529,0.76891 0.92459,7.55058 2.44418,15.0704 l 2.76291,13.67239 -8.95487,13.89292 -8.95488,13.89291 -11.32286,5.20605 -11.32287,5.20606 43.38172,17.19288 43.3817,17.19287 61.53904,94.27419 c 33.84646,51.8508 61.51339,94.6377 61.48208,95.082 -0.0313,0.44429 -12.31498,8.56541 -27.29699,18.04691 -14.98202,9.48151 -27.26155,17.64036 -27.28784,18.13078 -0.0263,0.49042 0.94727,0.89168 2.16345,0.89168 3.52099,0 38.66167,3.62059 39.06611,4.02504 0.20117,0.20117 6.06371,40.97459 13.02787,90.60762 6.96415,49.63301 13.14335,90.77685 13.73155,91.43075 0.63635,0.70742 0.8063,-4.1074 0.41964,-11.88904 -0.35739,-7.19286 -0.92322,-44.10832 -1.25738,-82.03434 l -0.60758,-68.95641 16.04377,-7.70051 c 8.82408,-4.23527 16.01906,-7.98032 15.98884,-8.32232 -0.0302,-0.342 -4.55246,-5.43688 -10.04942,-11.32195 l -9.9945,-10.70014 -15.6863,-41.61162 c -8.62745,-22.88639 -17.75608,-46.96169 -20.28583,-53.50066 -4.58671,-11.85587 -4.69924,-12.01002 -40.33606,-55.25481 -19.65509,-23.85116 -35.23121,-43.5342 -34.6136,-43.74007 0.61761,-0.20587 27.44328,5.2306 59.61261,12.08105 l 58.48968,12.45534 33.07288,32.17598 33.07287,32.17597 44.21959,-39.33801 c 24.32078,-21.63591 44.3612,-39.15718 44.53427,-38.93617 0.17306,0.22102 -7.22537,37.07024 -16.44095,81.88716 l -16.75563,81.48533 -26.8632,32.82258 -26.86321,32.8226 -0.73971,15.28258 c -0.40684,8.40542 -2.12745,55.67558 -3.82357,105.0448 -1.69613,49.36922 -3.34298,91.50099 -3.65967,93.62616 l -0.57582,3.86394 -142.0201,0 c -112.82605,0 -142.01912,-0.30549 -142.01531,-1.48613 z m 264.04607,-404.61 -26.16357,-23.26916 17.48304,-21.06241 c 84.49762,-101.79718 108.9212,-130.94615 109.71828,-130.94615 1.30453,0 60.78425,76.93492 60.38292,78.10319 -0.46971,1.36733 -133.32641,120.44371 -134.38227,120.44371 -0.48114,0 -12.64843,-10.47113 -27.0384,-23.26918 z m -72.04294,-52.32034 c -20.9247,-10.05831 -38.52066,-18.45678 -39.10212,-18.66325 -0.73975,-0.26269 110.15385,-168.49321 114.08958,-173.07899 0.19963,-0.23259 19.89063,12.87507 43.75779,29.12814 38.55938,26.25819 43.23733,29.78054 41.98133,31.61065 -3.12101,4.54759 -121.53455,149.40255 -122.08721,149.34895 -0.32695,-0.0317 -17.71467,-8.2872 -38.63937,-18.3455 z m -96.69073,-31.3594 -26.54543,-15.26281 3.95626,-1.2941 c 8.18354,-2.67684 82.27854,-23.86485 82.5304,-23.60017 0.44155,0.464 -32.09798,55.5654 -32.76909,55.49017 -0.3447,-0.0386 -12.57216,-6.93854 -27.17214,-15.33309 z m 83.27635,-94.67024 c 2.57139,-12.806 4.43394,-23.91249 4.13899,-24.68109 -0.29494,-0.7686 -15.33018,-9.66103 -33.41167,-19.76096 -19.57321,-10.93317 -32.65777,-18.93068 -32.33751,-19.76525 1.07372,-2.79806 55.48223,-86.69259 56.43391,-87.01757 0.95211,-0.32512 94.47846,57.03439 97.26828,59.65445 1.05314,0.98906 -6.43972,12.55576 -30.31704,46.80031 l -31.71593,45.48656 -16.9234,11.28358 c -9.30787,6.20597 -17.12308,11.28359 -17.36714,11.28359 -0.24405,0 1.66013,-10.47763 4.23151,-23.28362 z m -122.12063,-86.3334 c -26.15588,-11.20499 -47.74342,-20.51474 -47.97231,-20.68832 -0.44813,-0.33987 67.72226,-91.16432 71.15757,-94.80432 1.99425,-2.11306 3.2141,-1.53159 34.61925,16.5023 17.90369,10.2809 35.58189,20.50582 39.2849,22.72206 l 6.73273,4.02951 -27.53854,46.31484 c -15.14621,25.47315 -27.80606,46.31073 -28.133,46.30573 -0.32695,-0.005 -21.99472,-9.1768 -48.1506,-20.3818 z"
           id="path3634"
           inkscape:connector-curvature="0" />
      </g>
      <g
         id="g3636"
         inkscape:label="Layer 1"
         transform="matrix(0.05785271,-0.25906198,-0.25906198,-0.05785271,578.44081,756.27591)">
        <image
           width="951.12286"
           height="951.12286"
           preserveAspectRatio="none"
           xlink:href="file:///Users/marian/Downloads/Untitled.png"
           id="image3638"
           x="-118.41857"
           y="33.943623"
           sodipodi:absref="/Users/marian/Downloads/Untitled.png" />
        <path
           inkscape:connector-curvature="0"
           id="path3640"
           d="m 218.04594,901.54601 c 0.002,-0.81737 6.66427,-53.80061 14.8036,-117.74054 L 247.64832,667.55107 158.63784,539.53382 69.627336,411.51656 78.25899,398.98505 c 4.747399,-6.89233 34.47071,-50.78449 66.0518,-97.53812 31.58109,-46.75364 57.82877,-85.46372 58.32818,-86.02241 0.81827,-0.91541 182.20805,80.06917 184.65862,82.44401 0.96596,0.93611 -7.32328,49.99249 -8.87283,52.51016 -0.61337,0.99658 -85.18823,22.34975 -88.45495,22.33281 -0.6539,-0.004 -12.69155,-10.64958 -26.75033,-23.65821 -14.05879,-13.00863 -25.70485,-23.02294 -25.88015,-22.25404 -0.17529,0.76891 0.92459,7.55058 2.44418,15.0704 l 2.76291,13.67239 -8.95487,13.89292 -8.95488,13.89291 -11.32286,5.20605 -11.32287,5.20606 43.38172,17.19288 43.3817,17.19287 61.53904,94.27419 c 33.84646,51.8508 61.51339,94.6377 61.48208,95.082 -0.0313,0.44429 -12.31498,8.56541 -27.29699,18.04691 -14.98202,9.48151 -27.26155,17.64036 -27.28784,18.13078 -0.0263,0.49042 0.94727,0.89168 2.16345,0.89168 3.52099,0 38.66167,3.62059 39.06611,4.02504 0.20117,0.20117 6.06371,40.97459 13.02787,90.60762 6.96415,49.63301 13.14335,90.77685 13.73155,91.43075 0.63635,0.70742 0.8063,-4.1074 0.41964,-11.88904 -0.35739,-7.19286 -0.92322,-44.10832 -1.25738,-82.03434 l -0.60758,-68.95641 16.04377,-7.70051 c 8.82408,-4.23527 16.01906,-7.98032 15.98884,-8.32232 -0.0302,-0.342 -4.55246,-5.43688 -10.04942,-11.32195 l -9.9945,-10.70014 -15.6863,-41.61162 c -8.62745,-22.88639 -17.75608,-46.96169 -20.28583,-53.50066 -4.58671,-11.85587 -4.69924,-12.01002 -40.33606,-55.25481 -19.65509,-23.85116 -35.23121,-43.5342 -34.6136,-43.74007 0.61761,-0.20587 27.44328,5.2306 59.61261,12.08105 l 58.48968,12.45534 33.07288,32.17598 33.07287,32.17597 44.21959,-39.33801 c 24.32078,-21.63591 44.3612,-39.15718 44.53427,-38.93617 0.17306,0.22102 -7.22537,37.07024 -16.44095,81.88716 l -16.75563,81.48533 -26.8632,32.82258 -26.86321,32.8226 -0.73971,15.28258 c -0.40684,8.40542 -2.12745,55.67558 -3.82357,105.0448 -1.69613,49.36922 -3.34298,91.50099 -3.65967,93.62616 l -0.57582,3.86394 -142.0201,0 c -112.82605,0 -142.01912,-0.30549 -142.01531,-1.48613 z m 264.04607,-404.61 -26.16357,-23.26916 17.48304,-21.06241 c 84.49762,-101.79718 108.9212,-130.94615 109.71828,-130.94615 1.30453,0 60.78425,76.93492 60.38292,78.10319 -0.46971,1.36733 -133.32641,120.44371 -134.38227,120.44371 -0.48114,0 -12.64843,-10.47113 -27.0384,-23.26918 z m -72.04294,-52.32034 c -20.9247,-10.05831 -38.52066,-18.45678 -39.10212,-18.66325 -0.73975,-0.26269 110.15385,-168.49321 114.08958,-173.07899 0.19963,-0.23259 19.89063,12.87507 43.75779,29.12814 38.55938,26.25819 43.23733,29.78054 41.98133,31.61065 -3.12101,4.54759 -121.53455,149.40255 -122.08721,149.34895 -0.32695,-0.0317 -17.71467,-8.2872 -38.63937,-18.3455 z m -96.69073,-31.3594 -26.54543,-15.26281 3.95626,-1.2941 c 8.18354,-2.67684 82.27854,-23.86485 82.5304,-23.60017 0.44155,0.464 -32.09798,55.5654 -32.76909,55.49017 -0.3447,-0.0386 -12.57216,-6.93854 -27.17214,-15.33309 z m 83.27635,-94.67024 c 2.57139,-12.806 4.43394,-23.91249 4.13899,-24.68109 -0.29494,-0.7686 -15.33018,-9.66103 -33.41167,-19.76096 -19.57321,-10.93317 -32.65777,-18.93068 -32.33751,-19.76525 1.07372,-2.79806 55.48223,-86.69259 56.43391,-87.01757 0.95211,-0.32512 94.47846,57.03439 97.26828,59.65445 1.05314,0.98906 -6.43972,12.55576 -30.31704,46.80031 l -31.71593,45.48656 -16.9234,11.28358 c -9.30787,6.20597 -17.12308,11.28359 -17.36714,11.28359 -0.24405,0 1.66013,-10.47763 4.23151,-23.28362 z m -122.12063,-86.3334 c -26.15588,-11.20499 -47.74342,-20.51474 -47.97231,-20.68832 -0.44813,-0.33987 67.72226,-91.16432 71.15757,-94.80432 1.99425,-2.11306 3.2141,-1.53159 34.61925,16.5023 17.90369,10.2809 35.58189,20.50582 39.2849,22.72206 l 6.73273,4.02951 -27.53854,46.31484 c -15.14621,25.47315 -27.80606,46.31073 -28.133,46.30573 -0.32695,-0.005 -21.99472,-9.1768 -48.1506,-20.3818 z"
           style="fill:#000000" />
      </g>
      <g
         transform="matrix(-0.16640522,-0.20680752,-0.20680752,0.16640522,604.53934,508.16857)"
         inkscape:label="Layer 1"
         id="g3642">
        <image
           sodipodi:absref="/Users/marian/Downloads/Untitled.png"
           y="33.943623"
           x="-118.41857"
           id="image3644"
           xlink:href="file:///Users/marian/Downloads/Untitled.png"
           preserveAspectRatio="none"
           height="951.12286"
           width="951.12286" />
        <path
           style="fill:#000000"
           d="m 218.04594,901.54601 c 0.002,-0.81737 6.66427,-53.80061 14.8036,-117.74054 L 247.64832,667.55107 158.63784,539.53382 69.627336,411.51656 78.25899,398.98505 c 4.747399,-6.89233 34.47071,-50.78449 66.0518,-97.53812 31.58109,-46.75364 57.82877,-85.46372 58.32818,-86.02241 0.81827,-0.91541 182.20805,80.06917 184.65862,82.44401 0.96596,0.93611 -7.32328,49.99249 -8.87283,52.51016 -0.61337,0.99658 -85.18823,22.34975 -88.45495,22.33281 -0.6539,-0.004 -12.69155,-10.64958 -26.75033,-23.65821 -14.05879,-13.00863 -25.70485,-23.02294 -25.88015,-22.25404 -0.17529,0.76891 0.92459,7.55058 2.44418,15.0704 l 2.76291,13.67239 -8.95487,13.89292 -8.95488,13.89291 -11.32286,5.20605 -11.32287,5.20606 43.38172,17.19288 43.3817,17.19287 61.53904,94.27419 c 33.84646,51.8508 61.51339,94.6377 61.48208,95.082 -0.0313,0.44429 -12.31498,8.56541 -27.29699,18.04691 -14.98202,9.48151 -27.26155,17.64036 -27.28784,18.13078 -0.0263,0.49042 0.94727,0.89168 2.16345,0.89168 3.52099,0 38.66167,3.62059 39.06611,4.02504 0.20117,0.20117 6.06371,40.97459 13.02787,90.60762 6.96415,49.63301 13.14335,90.77685 13.73155,91.43075 0.63635,0.70742 0.8063,-4.1074 0.41964,-11.88904 -0.35739,-7.19286 -0.92322,-44.10832 -1.25738,-82.03434 l -0.60758,-68.95641 16.04377,-7.70051 c 8.82408,-4.23527 16.01906,-7.98032 15.98884,-8.32232 -0.0302,-0.342 -4.55246,-5.43688 -10.04942,-11.32195 l -9.9945,-10.70014 -15.6863,-41.61162 c -8.62745,-22.88639 -17.75608,-46.96169 -20.28583,-53.50066 -4.58671,-11.85587 -4.69924,-12.01002 -40.33606,-55.25481 -19.65509,-23.85116 -35.23121,-43.5342 -34.6136,-43.74007 0.61761,-0.20587 27.44328,5.2306 59.61261,12.08105 l 58.48968,12.45534 33.07288,32.17598 33.07287,32.17597 44.21959,-39.33801 c 24.32078,-21.63591 44.3612,-39.15718 44.53427,-38.93617 0.17306,0.22102 -7.22537,37.07024 -16.44095,81.88716 l -16.75563,81.48533 -26.8632,32.82258 -26.86321,32.8226 -0.73971,15.28258 c -0.40684,8.40542 -2.12745,55.67558 -3.82357,105.0448 -1.69613,49.36922 -3.34298,91.50099 -3.65967,93.62616 l -0.57582,3.86394 -142.0201,0 c -112.82605,0 -142.01912,-0.30549 -142.01531,-1.48613 z m 264.04607,-404.61 -26.16357,-23.26916 17.48304,-21.06241 c 84.49762,-101.79718 108.9212,-130.94615 109.71828,-130.94615 1.30453,0 60.78425,76.93492 60.38292,78.10319 -0.46971,1.36733 -133.32641,120.44371 -134.38227,120.44371 -0.48114,0 -12.64843,-10.47113 -27.0384,-23.26918 z m -72.04294,-52.32034 c -20.9247,-10.05831 -38.52066,-18.45678 -39.10212,-18.66325 -0.73975,-0.26269 110.15385,-168.49321 114.08958,-173.07899 0.19963,-0.23259 19.89063,12.87507 43.75779,29.12814 38.55938,26.25819 43.23733,29.78054 41.98133,31.61065 -3.12101,4.54759 -121.53455,149.40255 -122.08721,149.34895 -0.32695,-0.0317 -17.71467,-8.2872 -38.63937,-18.3455 z m -96.69073,-31.3594 -26.54543,-15.26281 3.95626,-1.2941 c 8.18354,-2.67684 82.27854,-23.86485 82.5304,-23.60017 0.44155,0.464 -32.09798,55.5654 -32.76909,55.49017 -0.3447,-0.0386 -12.57216,-6.93854 -27.17214,-15.33309 z m 83.27635,-94.67024 c 2.57139,-12.806 4.43394,-23.91249 4.13899,-24.68109 -0.29494,-0.7686 -15.33018,-9.66103 -33.41167,-19.76096 -19.57321,-10.93317 -32.65777,-18.93068 -32.33751,-19.76525 1.07372,-2.79806 55.48223,-86.69259 56.43391,-87.01757 0.95211,-0.32512 94.47846,57.03439 97.26828,59.65445 1.05314,0.98906 -6.43972,12.55576 -30.31704,46.80031 l -31.71593,45.48656 -16.9234,11.28358 c -9.30787,6.20597 -17.12308,11.28359 -17.36714,11.28359 -0.24405,0 1.66013,-10.47763 4.23151,-23.28362 z m -122.12063,-86.3334 c -26.15588,-11.20499 -47.74342,-20.51474 -47.97231,-20.68832 -0.44813,-0.33987 67.72226,-91.16432 71.15757,-94.80432 1.99425,-2.11306 3.2141,-1.53159 34.61925,16.5023 17.90369,10.2809 35.58189,20.50582 39.2849,22.72206 l 6.73273,4.02951 -27.53854,46.31484 c -15.14621,25.47315 -27.80606,46.31073 -28.133,46.30573 -0.32695,-0.005 -21.99472,-9.1768 -48.1506,-20.3818 z"
           id="path3646"
           inkscape:connector-curvature="0" />
      </g>
    </g>
  </g>
</svg>
